P2
2 3 255
100 	108 	
76 	150 	
28 	125 	
